<svg width="36" height="36" viewBox="0 0 36 36" fill="none" xmlns="http://www.w3.org/2000/svg">
<path d="M25.3866 28.5C27.0303 27.5811 27.5893 25.5609 28.7074 21.5204L30.2887 15.8063C31.407 11.7657 31.966 9.74541 31.017 8.15385C30.0679 6.56228 27.9815 6.02096 23.8086 4.9383L20.8578 4.17275C16.6848 3.09009 14.5984 2.54877 12.9546 3.46766C11.7843 4.12188 11.1639 5.33439 10.5 7.43679" stroke="#B05200" stroke-width="2"/>
<path d="M4.5 16.5C4.5 12.2574 4.5 10.136 5.81802 8.81802C7.13604 7.5 9.25736 7.5 13.5 7.5H16.5C20.7426 7.5 22.8639 7.5 24.182 8.81802C25.5 10.136 25.5 12.2574 25.5 16.5V24C25.5 28.2426 25.5 30.3639 24.182 31.682C22.8639 33 20.7426 33 16.5 33H13.5C9.25736 33 7.13604 33 5.81802 31.682C4.5 30.3639 4.5 28.2426 4.5 24V16.5Z" stroke="#4A3218" stroke-width="2"/>
<path d="M11.6418 16.9143C12.8486 16.2288 13.9018 16.5051 14.5345 16.945C14.794 17.1253 14.9237 17.2156 15 17.2156C15.0763 17.2156 15.2061 17.1253 15.4654 16.945C16.0981 16.5051 17.1514 16.2288 18.3582 16.9143C19.9419 17.8137 20.3002 20.7811 16.6471 23.2848C15.9514 23.7616 15.6036 24 15 24C14.3965 24 14.0486 23.7616 13.3528 23.2848C9.69978 20.7811 10.0581 17.8137 11.6418 16.9143Z" stroke="#B05200" stroke-width="2" stroke-linecap="round"/>
</svg>
