<svg width="37" height="37" viewBox="0 0 37 37" fill="none" xmlns="http://www.w3.org/2000/svg">
<path d="M16.8078 24.515C14.7938 23.9491 12.6131 24.979 11.0771 26.9705C10.3435 27.9217 10.6333 29.2722 11.4575 29.5038L18.7771 31.5602C19.6014 31.7918 20.5521 30.7897 20.4212 29.5956C20.1471 27.0956 18.8218 25.0808 16.8078 24.515Z" fill="#FFAB58" stroke="#B05200" stroke-width="1.5" stroke-linecap="round"/>
<path d="M28.6872 12.2717L30.134 12.6782C31.5792 13.0842 32.3017 13.2872 32.5511 13.8472C32.8005 14.4072 32.4523 15.0448 31.7558 16.32L30.711 18.2326C29.1399 21.1093 25.9101 22.6691 22.6359 22.2572" stroke="#B05200" stroke-width="1.5" stroke-linecap="round" stroke-linejoin="round"/>
<path d="M13.043 7.87643L11.5962 7.46997C10.1511 7.06397 9.42854 6.86097 8.92399 7.20919C8.41944 7.5574 8.38468 8.28306 8.31519 9.73438L8.21094 11.9112C8.05414 15.1853 9.99901 18.1989 13.0087 19.5523" stroke="#B05200" stroke-width="1.5" stroke-linecap="round" stroke-linejoin="round"/>
<path d="M16.8075 24.5151C20.4427 25.5364 25.0806 20.7861 28.1468 13.4066C28.9947 11.3658 29.4188 10.3454 28.9742 9.33889C28.5297 8.33246 27.4413 8.02669 25.2645 7.41512L18.4931 5.51275C16.3163 4.9012 15.228 4.59543 14.3243 5.22311C13.4207 5.85081 13.2512 6.94273 12.9122 9.12659C11.6867 17.0232 13.1722 23.4938 16.8075 24.5151Z" fill="#FFAB58" stroke="#B05200" stroke-width="1.5" stroke-linecap="round"/>
</svg>
