<svg width="47" height="38" viewBox="0 0 47 38" fill="none" xmlns="http://www.w3.org/2000/svg">
<path d="M20.7356 5.49432C21.9075 4.24081 24.0103 4.94836 24.186 6.65538L24.9516 14.0911C25.1006 15.5385 23.7033 16.6556 22.3242 16.1915L16.4536 14.2161C15.0745 13.752 14.6368 12.0175 15.6305 10.9546L20.7356 5.49432Z" fill="#F2FCD0"/>
<path d="M5.25038 7.06469C5.72648 5.48744 7.79859 5.13007 8.77552 6.45673L11.9452 10.7611C12.827 11.9585 12.1401 13.6652 10.6747 13.918L5.96022 14.7311C4.49483 14.9838 3.27592 13.6058 3.70563 12.1822L5.25038 7.06469Z" fill="#F2FCD0"/>
<path d="M33.8559 12.4798C35.5209 11.7794 37.1878 13.4705 36.4635 15.1253L33.5702 21.7358C33.003 23.0316 31.3066 23.3452 30.3136 22.3378L26.5556 18.5254C25.5626 17.518 25.9006 15.8263 27.2044 15.2778L33.8559 12.4798Z" fill="#F2FCD0"/>
<path d="M40.8147 26.0945C42.4356 26.3893 43.0249 28.4078 41.8171 29.5284L37.8984 33.1641C36.8083 34.1755 35.0349 33.6859 34.6182 32.2584L33.2776 27.6661C32.861 26.2386 34.0924 24.8718 35.5554 25.1379L40.8147 26.0945Z" fill="#F2FCD0"/>
</svg>
