<svg width="36" height="36" viewBox="0 0 36 36" fill="none" xmlns="http://www.w3.org/2000/svg">
<path d="M15.8253 4.5C10.0467 4.51041 7.02075 4.65228 5.08692 6.58609C3 8.67303 3 12.0319 3 18.7495C3 25.4673 3 28.8261 5.08692 30.913C7.17385 33 10.5327 33 17.2505 33C23.9681 33 27.327 33 29.414 30.913C31.3478 28.9792 31.4897 25.9533 31.5 20.1747" stroke="#B05200" stroke-width="2.25" stroke-linecap="round" stroke-linejoin="round"/>
<path d="M16.5835 19.5C15.4984 5.79952 25.2036 1.91331 32.9709 3.24658C33.2845 7.78704 31.0629 9.48723 26.832 10.2724C27.649 11.126 29.0926 12.2003 28.9369 13.5432C28.8261 14.4988 28.177 14.9676 26.8792 15.9054C24.0348 17.9604 20.7397 19.2562 16.5835 19.5Z" stroke="#4A3218" stroke-width="2.25" stroke-linecap="round" stroke-linejoin="round"/>
<path d="M13.5 25.5C16.5 17.25 19.4406 14.4545 22.5 12" stroke="#4A3218" stroke-width="2.25" stroke-linecap="round" stroke-linejoin="round"/>
</svg>
